<svg xmlns="http://www.w3.org/2000/svg" viewBox="774 482 300 300"><path d="M1913.7 476.8c-1.4 1.5-1.7 4.1-1.7 14.3v12.4l-5.8 1.7c-7.4 2.2-12.4 6.5-15.9 13.6-5.4 10.9-3 23.7 5.9 31.8 4.5 4 9.4 6.4 13.3 6.4 2.3 0 2.5.3 2.5 4.9v4.8l-4.7.7c-9.2 1.2-16.8 8-19.2 17.1-.6 2.2-1.1 10.2-1.1 17.7V616l-28.2.2-28.2.3-1.5 2.6c-1.3 2.4-1.3 2.9.2 5.3l1.7 2.6h55.9l.3 22.2c.3 25.1.9 27.3 8.2 33.2 3 2.5 4.8 3.1 10.1 3.4l6.5.4.2 39.6.3 39.5 2.8 2 2.7 2.1 2.8-2.1 2.7-2 .3-39.7.2-39.6h41.9l1.5 5.2c.8 2.9 3.1 11.4 5.1 18.8 6.3 23.2 8.4 29.9 10 32.4 1.9 2.9 7.2 5.6 11.2 5.6 6.5 0 13.3-6.7 13.3-13.2 0-3-12.5-64.5-14.1-69.5-1.3-4.1-6.8-8.9-11.6-10.2-2.1-.6-13.3-1.1-25-1.1H1935l-.1-11c-.1-6.1-.2-12-.2-13.3l-.1-2.2 43.3-.3c30-.1 43.8-.6 44.8-1.3 1.6-1.4 1.7-7.1.1-8.7-.9-.9-12.1-1.2-44.4-1.2h-43.2l-.4-15.3c-.5-17-1.8-21.6-7.7-27.1-2.9-2.8-3.1-3.4-3.1-10.3 0-6.4.3-7.4 2.1-8.4 8.2-4.3 14.9-15.1 14.9-23.8 0-9.4-5.7-19.5-13.4-23.6l-3.6-2v-13c0-10.2-.3-13.5-1.6-15.3-1.9-2.7-6.4-2.9-8.7-.4M890.2 487.5c-21.9 6.1-29.4 33.2-13.7 49 14.4 14.3 38.5 10.7 47.4-7.1 3.2-6.4 3.9-16.4 1.7-23.2-4.7-14.2-20.9-22.7-35.4-18.7m537.6-.1c-4.8 1.3-6.1 2.1-11.2 6.5-7.1 6.3-9.8 20.6-5.7 29.7 6.3 13.8 22.1 19.6 35.7 12.9 21.2-10.4 17.9-42.2-5-49-5.9-1.8-7.6-1.8-13.8-.1M1204.1 499c-8.5 1.8-15.6 7.5-20.4 16.4-1.7 3.3-2.2 5.8-2.2 12.6 0 7.6.3 9.1 3 13.9 5.6 10.2 14.2 15.1 26.4 15.1 11.4 0 21.1-6.2 26.1-16.6 3.4-7 3.4-18 .1-24.8-6.1-12.5-19.6-19.3-33-16.6m409.9 5.9c-12.1 3.7-21.2 17.1-19.6 28.8 2.1 15.3 14.2 25.2 29.2 24 14.9-1.1 25.5-13.8 24.1-28.7-.6-7.4-3.1-12.4-8.4-17.7-6.5-6.2-17-8.9-25.3-6.4m78.5 19.6-2.5 2.4V562c0 33.5.1 35.1 2 37 2.7 2.7 6.4 3.4 9.6 1.8 5.3-2.5 5.4-3.4 5.2-40.1l-.3-33.9-2.8-2.4c-3.7-3.1-8.1-3.1-11.2.1m33.8-1c-1.3.9-2.6 3.2-3.1 5.3-1.4 5.7-1.6 61.1-.2 66.1 1.5 5.5 6.1 8.1 11 6.1 1.7-.7 3.6-2.2 4.1-3.3.8-1.3 1.1-13.6 1-36.6l-.1-34.6-2.6-2.3c-2.9-2.6-7-2.9-10.1-.7m-309 25.9c-5.9 2.8-8.1 5-25.8 26-8 9.5-12.9 16.3-13.5 18.5-1 3.8-4 37.5-4 44.9 0 7.2 6.6 11.8 13.1 9.2 5.1-2.1 5.9-4.6 8.4-25 2.5-20 3-21.4 9-27l2.6-2.5-.8 12.5c-.4 6.9-.8 17.9-.8 24.5 0 10.8.3 12.6 2.6 17.6 1.4 3 5.3 8.6 8.6 12.5 11.3 13.2 27.1 33.1 27.7 35 .3 1.1 2.1 10.2 4 20.4 5.8 30.3 7.4 33.5 16.5 33.5 10.9 0 13.2-5.3 10.8-24.8-5.3-41.4-3.4-35.3-19.9-63.9-5.6-9.7-9.5-17.4-9.2-18.5.2-1 1.1-7.8 1.9-15.2 1.5-14.1 2.8-17.7 3.9-11.7.7 3.8 6 9 21 20.5 9.4 7.3 13 7.9 17.7 3.2 2.3-2.3 2.9-3.8 2.9-7.1 0-4-.4-4.6-9.2-12.8-5.1-4.7-11.8-11.1-14.8-14.2l-5.5-5.5-5.3-18c-6.4-21.9-9-26.9-15.6-31-4.3-2.6-6.1-3-13-3.3-6.9-.2-8.9.1-13.3 2.2m-256.9 3.4c-15 5.3-33.9 30.2-41.8 54.7-5.8 18.3-6 50.6-.4 63.7 2.5 5.8 9.1 12 14.6 13.6 2.7.8 14.9 1.2 38.5 1.2h34.6l1.1 4.2c4.1 15.5 15.3 53.9 16.7 57 2.1 4.9 5.3 7.8 10 8.8 8.2 1.9 17.4-3.7 18.9-11.4.5-2.9-1.2-13.1-7.4-42.8-8.9-43-9.3-44.2-17.5-48.9-4.1-2.3-4.8-2.4-30.6-2.7l-26.4-.4.7-8.4c1.3-16.3 5.6-27.3 15.5-40.3 8.7-11.5 10.5-15.8 9.8-23.7-1.1-14.4-11.1-24.4-25.8-25.9-3.8-.4-6.9 0-10.5 1.3M888 555.9c-7.5 2.4-13.6 7.5-17.3 14.5-2.2 4-2.2 4.9-2.5 49-.3 49.6 0 53.5 5 59.2 6.1 7 5.3 6.8 46.2 7.4l36.9.5 8.3 29.5c4.5 16.2 9 31 10 32.8 5 9.4 19 10 25.7 1.1 3.7-5 3.2-9.4-5.2-49.3-11.1-52.6-7.6-48.9-46.6-49.6l-27-.5-.5-38.5c-.5-37.2-.6-38.6-2.7-42.6-2.4-4.5-7.6-9.5-12.5-12-3.6-1.9-14-2.8-17.8-1.5m734.1 10.8c-8.8 3.1-15.2 12.3-15.9 22.8-.3 5 .4 8.4 4.1 20.5 2.5 8 7.5 24.6 11.2 37s7.7 24.3 9 26.6c1.3 2.2 4.3 5.4 6.6 7l4.2 2.9 30.9.3 30.8.3 10.6 21.1c12.6 25.1 14.5 28.3 18.7 30.8 8.8 5.4 20.1-1.4 19.9-12-.1-4.3-24.1-63.9-27.7-68.6-1.3-1.7-4.4-4.1-6.8-5.3-3.9-1.9-6.1-2.1-23.5-2.1-19 0-19.3 0-20.2-2.3-.5-1.2-5.2-16.1-10.5-33.1s-10.3-32.5-11.2-34.3c-3.3-7.1-14-13.4-22.2-13.2-2 0-5.6.8-8 1.6"/><path d="M845.3 568.7c-1.3.2-3.2 1.6-4.3 3-1.9 2.5-2 3.9-2 51 0 54.2.3 57.4 6.6 68 6.9 11.4 17.5 19.7 29.8 22.9 7.9 2.1 69.3 2 72.3-.1 4.4-3.1 3.5-13.1-1.2-14.9-.9-.3-14.4-.6-29.9-.6-36.4 0-40.9-.8-49.7-8.7-5.2-4.7-8.5-11.4-9.9-19.4-.6-3.7-1-25.2-1-51.1v-44.7l-2.2-2.5c-2.5-2.7-5.1-3.5-8.5-2.9m562.9 91c-3.5.7-4.7 3.7-7.2 17.8-1.3 7.1-2.9 14.2-3.6 15.6-2.3 4.6-19.6 33.3-21.5 35.8-4.4 5.5-1.3 15.2 5.4 16.9 7.5 2 13-1.7 21.9-14.8 2.8-4.1 8-11.4 11.4-16.1 8.3-11.2 11.4-18 12.1-26.6l.5-6.8-7.4-10.9c-4-6-7.8-11-8.3-11.1-.6-.1-2 0-3.3.2"/></svg>
